# xmcd
#
# Track frame offsets:
#	150
#	10062
#	20407
#	32155
#	42822
#	54522
#	64280
#	75610
#	88805
#	99692
#
# Disc length: 1461 seconds
#
# Revision: 0
# Processed by: cddbd v1.4PL0 Copyright (c) Steve Scherf et al.
# Submitted via: dBpowerAMP V4.0
#
DISCID=7805b30a
DTITLE=Little Anthony and The Imperials - Tears On My Pillow
DYEAR=1900
DGENRE=Blues
TTITLE0=I'm All Right
TTITLE1=Tears On My Pillow
TTITLE2=Two People Of The World
TTITLE3=So Much
TTITLE4=When You Wish Apon A Star
TTITLE5=Shimmy Shimmy Ko Ko Bop
TTITLE6=A Prayer and A Juke Box
TTITLE7=So Near and Yet So Far
TTITLE8=I'm Still In Love With You
TTITLE9=Over The Rainbow
EXTD=
EXTT0=
EXTT1=
EXTT2=
EXTT3=
EXTT4=
EXTT5=
EXTT6=
EXTT7=
EXTT8=
EXTT9=
PLAYORDER=
